
<?xml version="1.0" encoding="UTF-8"?>
<svg width="800px" height="800px" viewBox="0 0 24 24" version="1.1" xmlns="http://www.w3.org/2000/svg" xmlns:xlink="http://www.w3.org/1999/xlink">
    <g stroke="none" stroke-width="1" fill="none" fill-rule="evenodd">
        <path d="M3,19 L3,18 C3,16.8954305 3.8954305,16 5,16 L19,16 C20.1045695,16 21,16.8954305 21,18 L21,19 C21,20.1045695 20.1045695,21 19,21 L5,21 C3.8954305,21 3,20.1045695 3,19 Z M5,17 C4.44771525,17 4,17.4477153 4,18 L4,19 C4,19.5522847 4.44771525,20 5,20 L19,20 C19.5522847,20 20,19.5522847 20,19 L20,18 C20,17.4477153 19.5522847,17 19,17 L5,17 Z M6.5,19 C7.05228475,19 7.5,18.5522847 7.5,18 C7.5,17.4477153 7.05228475,17 6.5,17 C5.94771525,17 5.5,17.4477153 5.5,18 C5.5,18.5522847 5.94771525,19 6.5,19 Z M17.5,19 C18.0522847,19 18.5,18.5522847 18.5,18 C18.5,17.4477153 18.0522847,17 17.5,17 C16.9477153,17 16.5,17.4477153 16.5,18 C16.5,18.5522847 16.9477153,19 17.5,19 Z M14.5,3 L17.5,7 L20,7 C21.1045695,7 22,7.8954305 22,9 L22,11 C22,12.1045695 21.1045695,13 20,13 L4,13 C2.8954305,13 2,12.1045695 2,11 L2,9 C2,7.8954305 2.8954305,7 4,7 L6.5,7 L9.5,3 L14.5,3 Z M10.2113249,4 L8.03668138,7 L15.9633186,7 L13.7886751,4 L10.2113249,4 Z M4,8 C3.44771525,8 3,8.44771525 3,9 L3,11 C3,11.5522847 3.44771525,12 4,12 L20,12 C20.5522847,12 21,11.5522847 21,11 L21,9 C21,8.44771525 20.5522847,8 20,8 L4,8 Z M6.5,11 C7.05228475,11 7.5,10.5522847 7.5,10 C7.5,9.44771525 7.05228475,9 6.5,9 C5.94771525,9 5.5,9.44771525 5.5,10 C5.5,10.5522847 5.94771525,11 6.5,11 Z M17.5,11 C18.0522847,11 18.5,10.5522847 18.5,10 C18.5,9.44771525 18.0522847,9 17.5,9 C16.9477153,9 16.5,9.44771525 16.5,10 C16.5,10.5522847 16.9477153,11 17.5,11 Z" fill="#000000" fill-rule="nonzero"></path>
    </g>
</svg>
